<svg xmlns="http://www.w3.org/2000/svg" width="1300" height="730" viewBox="0 0 1300 730" role="img" aria-labelledby="title desc">
  <title id="title">Anteprima icone Luoghi e Intrattenimento</title>
  <desc id="desc">Icona principale e cinque icone per parchi e piazze, sport, cinema, teatri e mostre.</desc>
  <defs>
    <filter id="shadow" x="-25%" y="-25%" width="150%" height="165%"><feDropShadow dx="0" dy="7" stdDeviation="8" flood-color="#31210b" flood-opacity=".18"/></filter>
    <style>
      .card{fill:#fffaf0;stroke:#e5d5b6;stroke-width:2}.name{font:700 23px system-ui,sans-serif;fill:#30220f}.note{font:500 14px system-ui,sans-serif;fill:#806d50}.badge{font:750 17px system-ui,sans-serif;fill:#fff}.glyph{fill:none;stroke:#fff;stroke-linecap:round;stroke-linejoin:round;stroke-width:3.5}.markerRing{fill:#fff;stroke:#30220f;stroke-width:2.5}
    </style>
    <symbol id="fun-main" viewBox="0 0 64 64"><g class="glyph"><path d="M13 18h38v10a6 6 0 0 0 0 12v10H13V40a6 6 0 0 0 0-12V18Z"/><path d="m32 24 2.6 5.3 5.9.9-4.3 4.1 1 5.8-5.2-2.7-5.2 2.7 1-5.8-4.3-4.1 5.9-.9L32 24Z"/><path d="M21 18v32M43 18v32" stroke-dasharray="2.5 5"/></g></symbol>
    <symbol id="parks" viewBox="0 0 64 64"><g class="glyph"><path d="M27 50V33M27 13 14 35h26L27 13ZM27 21 10 43h34L27 21Z"/><path d="M38 46h17M40 39h13v7H40zM42 46v6M52 46v6M8 52h48"/></g></symbol>
    <symbol id="sport" viewBox="0 0 64 64"><g class="glyph"><circle cx="32" cy="32" r="24"/><path d="m32 8 9 9-4 11H27l-4-11 9-9ZM27 28l-10 7-8-5M37 28l10 7 8-5M21 49l6-9h10l6 9M17 35l4 14M47 35l-4 14"/></g></symbol>
    <symbol id="cinema" viewBox="0 0 64 64"><g class="glyph"><path d="M11 23h42v30H11zM11 23l5-13 42 10-5 13"/><path d="m20 11 5 13M32 14l5 13M44 17l5 13M20 23h12l-6 10H14M44 23h12L50 33H38"/><path d="m28 37 12 7-12 7V37Z"/></g></symbol>
    <symbol id="theater" viewBox="0 0 64 64"><g class="glyph"><path d="M10 13h44v38H10V13ZM10 13c8 6 13 14 13 24s-5 14-13 14M54 13c-8 6-13 14-13 24s5 14 13 14M24 13v38M40 13v38"/><path d="M28 27c2-2 6-2 8 0M28 38c2 3 6 3 8 0"/></g></symbol>
    <symbol id="exhibition" viewBox="0 0 64 64"><g class="glyph"><path d="M10 12h44v38H10zM16 18h32v26H16z"/><circle cx="39" cy="25" r="4"/><path d="m17 42 10-11 7 7 5-5 9 9M25 50v6M39 50v6M18 56h28"/></g></symbol>
  </defs>
  <rect width="1300" height="730" rx="30" fill="#f5ead3"/>
  <text x="50" y="50" font-family="system-ui,sans-serif" font-size="28" font-weight="760" fill="#35240e">Luoghi / Intrattenimento · anteprima della famiglia di icone</text>
  <text x="50" y="78" font-family="system-ui,sans-serif" font-size="15" fill="#806d50">Una palette calda costruita attorno a giallo, ambra e ocra, con variazioni riconoscibili.</text>

  <g transform="translate(45 110)"><rect class="card" width="380" height="270" rx="22" filter="url(#shadow)"/><circle cx="31" cy="31" r="18" fill="#d99a16"/><text class="badge" x="31" y="37" text-anchor="middle">C</text><g transform="translate(110 24)"><rect width="108" height="108" rx="31" fill="#d99a16"/><rect x="3" y="3" width="102" height="102" rx="28" fill="none" stroke="#fff" stroke-opacity=".3" stroke-width="3"/><use href="#fun-main" x="20" y="20" width="68" height="68"/></g><circle class="markerRing" cx="224" cy="122" r="27"/><circle cx="224" cy="122" r="22" fill="#d99a16"/><use href="#fun-main" x="206" y="104" width="36" height="36"/><text class="name" x="190" y="180" text-anchor="middle">Luoghi / Intrattenimento</text><text class="note" x="190" y="208" text-anchor="middle">biglietto e stella</text></g>
  <g transform="translate(460 110)"><rect class="card" width="380" height="270" rx="22" filter="url(#shadow)"/><circle cx="31" cy="31" r="18" fill="#8a9a32"/><text class="badge" x="31" y="37" text-anchor="middle">1</text><g transform="translate(110 24)"><rect width="108" height="108" rx="31" fill="#8a9a32"/><rect x="3" y="3" width="102" height="102" rx="28" fill="none" stroke="#fff" stroke-opacity=".3" stroke-width="3"/><use href="#parks" x="20" y="20" width="68" height="68"/></g><circle class="markerRing" cx="224" cy="122" r="27"/><circle cx="224" cy="122" r="22" fill="#8a9a32"/><use href="#parks" x="206" y="104" width="36" height="36"/><text class="name" x="190" y="180" text-anchor="middle">Parchi e piazze</text><text class="note" x="190" y="208" text-anchor="middle">oliva dorato</text></g>
  <g transform="translate(875 110)"><rect class="card" width="380" height="270" rx="22" filter="url(#shadow)"/><circle cx="31" cy="31" r="18" fill="#c9791a"/><text class="badge" x="31" y="37" text-anchor="middle">2</text><g transform="translate(110 24)"><rect width="108" height="108" rx="31" fill="#c9791a"/><rect x="3" y="3" width="102" height="102" rx="28" fill="none" stroke="#fff" stroke-opacity=".3" stroke-width="3"/><use href="#sport" x="20" y="20" width="68" height="68"/></g><circle class="markerRing" cx="224" cy="122" r="27"/><circle cx="224" cy="122" r="22" fill="#c9791a"/><use href="#sport" x="206" y="104" width="36" height="36"/><text class="name" x="190" y="180" text-anchor="middle">Sport</text><text class="note" x="190" y="208" text-anchor="middle">arancio ocra</text></g>

  <g transform="translate(45 420)"><rect class="card" width="380" height="270" rx="22" filter="url(#shadow)"/><circle cx="31" cy="31" r="18" fill="#a97716"/><text class="badge" x="31" y="37" text-anchor="middle">3</text><g transform="translate(110 24)"><rect width="108" height="108" rx="31" fill="#a97716"/><rect x="3" y="3" width="102" height="102" rx="28" fill="none" stroke="#fff" stroke-opacity=".3" stroke-width="3"/><use href="#cinema" x="20" y="20" width="68" height="68"/></g><circle class="markerRing" cx="224" cy="122" r="27"/><circle cx="224" cy="122" r="22" fill="#a97716"/><use href="#cinema" x="206" y="104" width="36" height="36"/><text class="name" x="190" y="180" text-anchor="middle">Cinema</text><text class="note" x="190" y="208" text-anchor="middle">oro scuro</text></g>
  <g transform="translate(460 420)"><rect class="card" width="380" height="270" rx="22" filter="url(#shadow)"/><circle cx="31" cy="31" r="18" fill="#b85c2b"/><text class="badge" x="31" y="37" text-anchor="middle">4</text><g transform="translate(110 24)"><rect width="108" height="108" rx="31" fill="#b85c2b"/><rect x="3" y="3" width="102" height="102" rx="28" fill="none" stroke="#fff" stroke-opacity=".3" stroke-width="3"/><use href="#theater" x="20" y="20" width="68" height="68"/></g><circle class="markerRing" cx="224" cy="122" r="27"/><circle cx="224" cy="122" r="22" fill="#b85c2b"/><use href="#theater" x="206" y="104" width="36" height="36"/><text class="name" x="190" y="180" text-anchor="middle">Teatri</text><text class="note" x="190" y="208" text-anchor="middle">terracotta caldo</text></g>
  <g transform="translate(875 420)"><rect class="card" width="380" height="270" rx="22" filter="url(#shadow)"/><circle cx="31" cy="31" r="18" fill="#d7a21b"/><text class="badge" x="31" y="37" text-anchor="middle">5</text><g transform="translate(110 24)"><rect width="108" height="108" rx="31" fill="#d7a21b"/><rect x="3" y="3" width="102" height="102" rx="28" fill="none" stroke="#fff" stroke-opacity=".3" stroke-width="3"/><use href="#exhibition" x="20" y="20" width="68" height="68"/></g><circle class="markerRing" cx="224" cy="122" r="27"/><circle cx="224" cy="122" r="22" fill="#d7a21b"/><use href="#exhibition" x="206" y="104" width="36" height="36"/><text class="name" x="190" y="180" text-anchor="middle">Mostre</text><text class="note" x="190" y="208" text-anchor="middle">giallo zafferano</text></g>
</svg>
